<?xml version="1.0" encoding="UTF-8"?>
<svg id="Camada_2" xmlns="http://www.w3.org/2000/svg" viewBox="0 0 308.55 89.02">
  <defs>
    <style>
      .cls-1 {
        fill: #fff;
      }
    </style>
  </defs>
  <g id="Camada_1-2" data-name="Camada_1">
    <g>
      <path class="cls-1" d="M41.06,39.38h24.04c5.18,6.42,7.76,13.19,7.76,20.31,0,8.28-3.03,15.24-9.1,20.87-6.07,5.63-13.53,8.45-22.39,8.45-11.51,0-21.29-4.37-29.32-13.11C4.02,67.17,0,56.53,0,43.98S4.09,20.91,12.27,12.55C20.45,4.18,30.67,0,42.92,0c4.18,0,8.82.85,13.92,2.55v25.22c-3.98-1.86-7.6-2.8-10.87-2.8-5.92,0-10.76,1.84-14.5,5.53-3.75,3.69-5.62,8.47-5.62,14.35s1.74,10.77,5.22,14.29c3.48,3.52,8.18,5.28,14.1,5.28,3.77,0,5.65-1.1,5.65-3.29,0-1.66-1.24-2.49-3.73-2.49h-6.03v-19.26Z"/>
      <path class="cls-1" d="M113.87,44.35v22.36h-7.27v20.19h-25.22v-53.92c0-10.44,2.85-18.54,8.54-24.32,5.69-5.78,13.7-8.67,24.01-8.67s17.29,2.62,22.05,7.86c4.76,5.24,7.14,13.32,7.14,24.26v54.79h-25.22v-53.11c0-3.31-.39-5.61-1.18-6.9-.79-1.28-2.2-1.93-4.22-1.93-3.93,0-5.9,2.94-5.9,8.82v10.56h7.27Z"/>
      <path class="cls-1" d="M156.67,86.91V25.78c0-7.58,2.3-13.77,6.89-18.57,4.6-4.8,10.56-7.21,17.89-7.21,8.7,0,15.38,4,20.06,11.99,2.86-4.31,5.92-7.38,9.19-9.22,3.27-1.84,7.31-2.76,12.11-2.76,7.62,0,13.46,2.4,17.52,7.21,4.06,4.8,6.09,11.72,6.09,20.75v58.95h-25.22V31.74c0-2.73-.22-4.54-.65-5.44-.43-.89-1.32-1.34-2.64-1.34-2.48,0-3.73,2.11-3.73,6.34v55.6h-25.22V31.74c0-2.69-.23-4.49-.68-5.4-.46-.91-1.35-1.37-2.67-1.37-2.48,0-3.73,2.26-3.73,6.77v55.16h-25.22Z"/>
      <path class="cls-1" d="M306.93,35.1v18.88h-16.46c-2.24,0-3.82.33-4.75.99-.93.66-1.4,1.78-1.4,3.35,0,1.78.48,2.95,1.43,3.51.95.56,2.9.84,5.84.84h16.96v24.23h-19.82c-9.32,0-16.44-2.23-21.37-6.68-4.93-4.45-7.39-10.88-7.39-19.29V27.71c0-8.12,2.33-14.41,6.99-18.88,4.66-4.47,11.21-6.71,19.66-6.71h21.93v24.35h-16.09c-4.35,0-6.52,1.41-6.52,4.22,0,1.66.52,2.81,1.55,3.45,1.03.64,2.88.96,5.53.96h13.92Z"/>
    </g>
  </g>
</svg>