<?xml version="1.0" encoding="UTF-8"?>
<svg id="Camada_2" xmlns="http://www.w3.org/2000/svg" viewBox="0 0 311.7 360.45">
  <g id="Camada_1-2" data-name="Camada_1">
    <g>
      <path d="M141.64,0c-13.53,0-39.41,6.77-52.06,14.75-6.37,4.01-12.26,8.86-18.81,12.52-14.62,8.19-22.26,24.23-18.78,40.73q1.32,6.25-4.74,8.26c-24.53,8.15-38.84,33.35-33.03,58.38.66,2.86.09,4.93-1.76,7.21-13.66,16.87-16.36,35.37-6.76,54.96,2.37,4.84,2.25,8.25-.1,12.85-10.81,21.18-5.41,46.14,13.29,60.76,4.7,3.67,6.74,7.03,6.96,13.42.81,23.99,13.01,40.85,34.73,51.03,2.66,1.25,5.3,3.34,7.01,5.72,12.51,17.4,40.07,23.87,62.05,17.41,19.71-5.79,37.63-23.79,38-23.77V8.58c-.8.07-13-8.58-26-8.58ZM136.89,109.2c1.13.98,3.11,1.07,4.74,1.35,10.61,1.78,17.22,9.32,17.23,20.13.05,45.98.03,91.96.01,137.94,0,1.24-.23,2.47-.41,4.25-3.42-3.12-6.22-5.84-9.18-8.35-5.46-4.62-11.62-8.01-18.47-10.1-.8-.24-1.62-.48-2.44-.57-2.93-.35-5.32.58-6.3,3.52-.98,2.96.41,5.16,2.96,6.59,1.45.81,3.05,1.38,4.62,1.96,28.35,10.46,38.41,45.93,19.8,69.84-19.35,24.86-56.78,23.07-73.94-3.68-2.21-3.44-4.93-5.58-8.67-7.01-20.69-7.87-32.21-26.75-29.63-48.69.58-4.93-.93-8-5.34-10.51-18.36-10.42-25.13-30.2-17.32-49.65,1.57-3.92,2.28-4.18,5.58-1.69,7.87,5.92,16.78,9.1,26.52,10.02,1.63.15,3.39.05,4.95-.39,2.45-.7,4.07-2.69,3.5-5.13-.43-1.82-1.87-3.72-3.41-4.85-1.18-.88-3.19-.7-4.85-.88-15.85-1.81-27.25-10.1-32.82-24.84-5.66-14.98-2.96-29.2,8.43-40.84,4.12-4.21,4.84-7.91,3.25-13.4-7.16-24.69,11.22-49.09,36.95-49.48,19.42-.3,36.83,15.21,38.72,34.49.06.6.09,1.2.16,1.79.64,5.66,2.78,8.32,6.35,7.93,3.6-.4,5.57-3.35,4.79-8.98-.74-5.29-1.71-10.75-3.81-15.59-7.3-16.85-20.33-26.91-38.43-30-4.08-.69-6-2.59-7.1-6.33-3.68-12.53,2.19-26.2,13.69-31.52,12.04-5.56,26.42-1.34,33.5,9.82,3.09,4.89,5.94,6.23,9.12,4.32,3.12-1.88,3.15-5.82.17-10.5-4.47-7.02-10.73-11.81-18.37-14.93-.99-.4-1.98-.83-2.94-1.29-.17-.08-.23-.4-.64-1.16,1.86-1.09,3.73-2.24,5.64-3.3,9.84-5.41,20.2-9.32,31.42-10.72,13.83-1.72,23.91,7.01,23.95,20.98.06,23.35.02,46.7.02,70.05,0,.47,0,.95-.02,1.43-.17,3.69-.73,3.83-4.07,2.44-4.05-1.69-8.26-3.05-12.47-4.26-1.41-.41-3.44-.49-4.52.25-1.6,1.09-3.4,2.94-3.62,4.66-.19,1.53,1.34,3.69,2.7,4.88Z"/>
      <path d="M78.16,205.42c-1.27-.1-2.36-.11-3.42-.29-2.58-.44-4.47-2.16-4.13-4.59.27-1.91,1.7-4.24,3.32-5.23,1.91-1.17,4.59-1.09,6.93-1.57,8.74-1.81,14.79-7.04,18.58-14.94,2.11-4.39,1.58-5.08-3.16-6.33-21.18-5.62-33.88-19.28-38.23-40.69-.52-2.54-.48-5.25-.37-7.86.13-2.98,1.76-4.94,4.87-5.26,2.83-.29,4.96,1.66,5.64,4.88,1.02,4.9,1.45,10.04,3.24,14.66,9.04,23.34,38.36,31.77,58.66,17.08,1.65-1.19,3.19-2.53,4.78-3.8,2.98-2.37,5.88-2.44,8.04-.21,2.11,2.19,2.17,6.11-.72,8.32-4.91,3.75-10.12,7.16-15.5,10.2-2.74,1.55-6.06,2.31-9.22,2.85-3.45.58-5.01,2.3-6.02,5.6-4.46,14.56-14.42,23.31-29.21,26.65-1.39.31-2.84.37-4.08.53Z"/>
      <path d="M112.87,318.18c-.07,1.14-.05,2.1-.21,3.04-.44,2.66-1.96,4.39-4.7,4.65-2.74.27-4.68-1.14-5.49-3.67-.61-1.91-.86-3.97-1.07-5.98-1.79-17.96-17.21-32.85-35.27-33.99-.12,0-.24,0-.36-.02-5.46-.37-8.22-2.5-8.05-6.23.15-3.4,2.66-5.27,8.05-5.06,4.24.17,4.3-2.57,4.54-5.32,1.08-12.33,6.09-22.82,14.9-31.43,8.81-8.62,19.5-13.27,31.77-14.24,1.29-.1,2.65-.02,3.91.27,2.57.6,4.3,2.25,4.47,4.95.18,2.76-1.51,4.5-3.97,5.33-1.45.49-3.04.61-4.58.74-19.29,1.58-34.66,17.64-35.6,37.01-.19,3.93,1.07,6.24,4.67,8.26,16.28,9.15,25.47,23.06,26.98,41.67Z"/>
    </g>
    <path d="M257.15,130.81c-2.95-12.17-11.78-35.49-20.62-33.46-8.84,2.03-22.59,31.43-24.55,87.21-1.96,55.77,1.96,106.47,28.48,103.43,26.52-3.04,26.52-37.52,26.52-37.52h-14.73v-28.39h55.98s20.57,66.16-38.3,115.6c-60.87,51.12-93.81-1.12-94.28-3.67V9.29S190.34,0,199.64,0c29,0,47.45,13.46,64.39,39.54,24.54,37.81,29.46,60.84,33.39,90.25,0,0-40.27,1.01-40.27,1.01Z"/>
  </g>
</svg>