<?xml version="1.0" encoding="UTF-8"?>
<svg id="Camada_2" xmlns="http://www.w3.org/2000/svg" viewBox="0 0 987.71 533.08">
  <defs>
    <style>
      .cls-1 {
        font-family: Bauhaus93, 'Bauhaus 93';
        font-size: 127.22px;
      }
    </style>
  </defs>
  <g id="Camada_1-2" data-name="Camada_1">
    <g>
      <g>
        <path d="M141.64,0c-13.53,0-39.41,6.77-52.06,14.75-6.37,4.01-12.26,8.86-18.81,12.52-14.62,8.19-22.26,24.23-18.78,40.73q1.32,6.25-4.74,8.26c-24.53,8.15-38.84,33.35-33.03,58.38.66,2.86.09,4.93-1.76,7.21-13.66,16.87-16.36,35.37-6.76,54.96,2.37,4.84,2.25,8.25-.1,12.85-10.81,21.18-5.41,46.14,13.29,60.76,4.7,3.67,6.74,7.03,6.96,13.42.81,23.99,13.01,40.85,34.73,51.03,2.66,1.25,5.3,3.34,7.01,5.72,12.51,17.4,40.07,23.87,62.05,17.41,19.71-5.79,37.63-23.79,38-23.77V8.58c-.8.07-13-8.58-26-8.58ZM136.89,109.2c1.13.98,3.11,1.07,4.74,1.35,10.61,1.78,17.22,9.32,17.23,20.13.05,45.98.03,91.96.01,137.94,0,1.24-.23,2.47-.41,4.25-3.42-3.12-6.22-5.84-9.18-8.35-5.46-4.62-11.62-8.01-18.47-10.1-.8-.24-1.62-.48-2.44-.57-2.93-.35-5.32.58-6.3,3.52-.98,2.96.41,5.16,2.96,6.59,1.45.81,3.05,1.38,4.62,1.96,28.35,10.46,38.41,45.93,19.8,69.84-19.35,24.86-56.78,23.07-73.94-3.68-2.21-3.44-4.93-5.58-8.67-7.01-20.69-7.87-32.21-26.75-29.63-48.69.58-4.93-.93-8-5.34-10.51-18.36-10.42-25.13-30.2-17.32-49.65,1.57-3.92,2.28-4.18,5.58-1.69,7.87,5.92,16.78,9.1,26.52,10.02,1.63.15,3.39.05,4.95-.39,2.45-.7,4.07-2.69,3.5-5.13-.43-1.82-1.87-3.72-3.41-4.85-1.18-.88-3.19-.7-4.85-.88-15.85-1.81-27.25-10.1-32.82-24.84-5.66-14.98-2.96-29.2,8.43-40.84,4.12-4.21,4.84-7.91,3.25-13.4-7.16-24.69,11.22-49.09,36.95-49.48,19.42-.3,36.83,15.21,38.72,34.49.06.6.09,1.2.16,1.79.64,5.66,2.78,8.32,6.35,7.93,3.6-.4,5.57-3.35,4.79-8.98-.74-5.29-1.71-10.75-3.81-15.59-7.3-16.85-20.33-26.91-38.43-30-4.08-.69-6-2.59-7.1-6.33-3.68-12.53,2.19-26.2,13.69-31.52,12.04-5.56,26.42-1.34,33.5,9.82,3.09,4.89,5.94,6.23,9.12,4.32,3.12-1.88,3.15-5.82.17-10.5-4.47-7.02-10.73-11.81-18.37-14.93-.99-.4-1.98-.83-2.94-1.29-.17-.08-.23-.4-.64-1.16,1.86-1.09,3.73-2.24,5.64-3.3,9.84-5.41,20.2-9.32,31.42-10.72,13.83-1.72,23.91,7.01,23.95,20.98.06,23.35.02,46.7.02,70.05,0,.47,0,.95-.02,1.43-.17,3.69-.73,3.83-4.07,2.44-4.05-1.69-8.26-3.05-12.47-4.26-1.41-.41-3.44-.49-4.52.25-1.6,1.09-3.4,2.94-3.62,4.66-.19,1.53,1.34,3.69,2.7,4.88Z"/>
        <path d="M78.16,205.42c-1.27-.1-2.36-.11-3.42-.29-2.58-.44-4.47-2.16-4.13-4.59.27-1.91,1.7-4.24,3.32-5.23,1.91-1.17,4.59-1.09,6.93-1.57,8.74-1.81,14.79-7.04,18.58-14.94,2.11-4.39,1.58-5.08-3.16-6.33-21.18-5.62-33.88-19.28-38.23-40.69-.52-2.54-.48-5.25-.37-7.86.13-2.98,1.76-4.94,4.87-5.26,2.83-.29,4.96,1.66,5.64,4.88,1.02,4.9,1.45,10.04,3.24,14.66,9.04,23.34,38.36,31.77,58.66,17.08,1.65-1.19,3.19-2.53,4.78-3.8,2.98-2.37,5.88-2.44,8.04-.21,2.11,2.19,2.17,6.11-.72,8.32-4.91,3.75-10.12,7.16-15.5,10.2-2.74,1.55-6.06,2.31-9.22,2.85-3.45.58-5.01,2.3-6.02,5.6-4.46,14.56-14.42,23.31-29.21,26.65-1.39.31-2.84.37-4.08.53Z"/>
        <path d="M112.87,318.18c-.07,1.14-.05,2.1-.21,3.04-.44,2.66-1.96,4.39-4.7,4.65-2.74.27-4.68-1.14-5.49-3.67-.61-1.91-.86-3.97-1.07-5.98-1.79-17.96-17.21-32.85-35.27-33.99-.12,0-.24,0-.36-.02-5.46-.37-8.22-2.5-8.05-6.23.15-3.4,2.66-5.27,8.05-5.06,4.24.17,4.3-2.57,4.54-5.32,1.08-12.33,6.09-22.82,14.9-31.43,8.81-8.62,19.5-13.27,31.77-14.24,1.29-.1,2.65-.02,3.91.27,2.57.6,4.3,2.25,4.47,4.95.18,2.76-1.51,4.5-3.97,5.33-1.45.49-3.04.61-4.58.74-19.29,1.58-34.66,17.64-35.6,37.01-.19,3.93,1.07,6.24,4.67,8.26,16.28,9.15,25.47,23.06,26.98,41.67Z"/>
      </g>
      <path d="M257.15,130.81c-2.95-12.17-11.78-35.49-20.62-33.46-8.84,2.03-22.59,31.43-24.55,87.21-1.96,55.77,1.96,106.47,28.48,103.43,26.52-3.04,26.52-54.52,26.52-54.52h-14.73v-28.39h55.98s20.57,83.16-38.3,132.6c-60.87,51.12-93.81-1.12-94.28-3.67V9.29S190.34,0,199.64,0c29,0,47.45,13.46,64.39,39.54,24.54,37.81,29.46,60.84,33.39,90.25,0,0-40.27,1.01-40.27,1.01Z"/>
    </g>
    <path d="M431.55,319.71c-10.19,24.01-26.81,40.29-49.48,40.29-33.1,0-59.93-34.69-59.93-77.5s26.83-77.5,59.93-77.5c18.51,0,31.95,10.85,42.94,27.89,2.46,3.81-2.27,8.22-6.44,5.98-3.93-2.09-8.22-3.25-12.74-3.25-15.84,0-32.21,11.46-35.59,30.62,8.42,2.04,14.4,7.28,14.4,13.43,0,5.7-5.17,10.62-12.65,12.94,5.03,15.51,19.99,29.23,33.83,29.23,6.63,0,12.82-2.52,18.02-6.83,3.73-3.11,9.52.41,7.7,4.7Z"/>
    <path d="M692.92,207.17c-17.99,5.15-28.63,23.09-28.63,49.63v.11c0,1.85,2.62,2.26,3.19.5,5.41-16.34,17.11-27.66,30.69-27.66,8.86,0,19.18,5.22,25.21,13.13,9.2,11.99,9.5,27.79,8.9,44.04-.09,2.42-3.44,2.93-4.28.65,0-.02-.02-.04-.02-.06-4.85-12.72-13.63-21.97-24.04-24.49-1.87-.46-3.8-.7-5.77-.7-10.83,0-20.46,7.19-26.66,18.4-1.3,2.34-2.45,4.86-3.42,7.52-2.43,6.63-3.8,14.15-3.8,22.13,0,26.54,21.89,43.88,36.37,47.92,20.65,5.75,57.24.69,61.27-59.99.15-2.2.24-4.45.29-6.81-.01-.04,0-.07,0-.12.01-.93.02-1.88.02-2.85,0-99.3-61.97-83.46-69.32-81.36Z"/>
    <path d="M524.03,296.89c1.24,6.45,1.89,13.18,1.89,20.11,0,.7-.01,1.4-.02,2.09-2.38,23.09-17.88,40.91-36.64,40.91-20.42,0-36.96-21.09-36.96-47.12,0-1.78.08-3.54.23-5.27.69-2.8,3.4-11.78,9.65-8.72,7.37,3.6,19.12,34.81,27,30.54,7.06-3.83-18.17-34.66-23.42-40.95-.03-.04-.07-.07-.1-.11-1.68-1.77-3.23-3.73-4.63-5.86-5.44-8.2-8.72-18.81-8.72-30.38,0-26.03,16.55-47.12,36.96-47.12,16.01,0,29.64,12.97,34.78,31.12,1.24,6.45,1.89,13.18,1.89,20.11,0,0-2.46,13.13-9.82,9.53-7.37-3.6-19.12-34.81-27-30.54-7.76,4.21,23.48,41.02,24.35,42.05l.02.02c1.46,1.6,2.8,3.34,4.02,5.2,2.81,4.22,5.03,9.08,6.53,14.39Z"/>
    <path d="M752.14,206.75c0,.68-.01,1.36-.02,2.03-.08.83-.17,1.66-.28,2.48.14-2.09.23-4.24.28-6.48.01.65.02,1.31.02,1.97Z"/>
    <path d="M649.99,284.3c.7,4.04,1.2,8.21,1.48,12.44,0,.26-.01.5-.01.75-1.85,19.92-9.49,37.26-20.45,48.49-8.28,8.51-18.47,13.51-29.48,13.51-27.82,0-50.36-28.76-50.36-68.21,0-1.53-.27-12.53-.27-14.98V7.32c0-4.04,3.27-7.32,7.32-7.32h17.46c4.04,0,7.32,3.27,7.32,7.32v72.76c5.73-2.32,11.98-3.57,18.53-3.57,11.01,0,21.2,3.94,29.48,10.64,10.96,8.85,18.6,22.49,20.45,38.18,0,.19.01.39.01.59-.28,3.34-.78,6.61-1.48,9.79l-.02.07c-.73,2.26-4.58,2.72-6.1.72-6.32-8.36-15.78-13.65-26.35-13.65-.72,0-1.42.02-2.12.07-11.84.79-22.07,8.26-27.72,19.08-2.97,5.7-4.68,12.31-4.68,19.38v90.35c0,8.97,1.7,17.38,4.68,24.61,5.65,13.75,15.88,23.23,27.72,24.24.7.06,1.4.1,2.12.1,10.57,0,20.03-6.74,26.35-17.34,1.52-2.55,5.37-1.97,6.1.91l.02.09Z"/>
    <path d="M986.23,284.3c.7,4.04,1.2,8.21,1.48,12.44,0,.26-.01.5-.01.75-1.85,19.92-9.49,37.26-20.45,48.49-8.28,8.51-18.47,13.51-29.48,13.51-27.82,0-50.36-28.76-50.36-68.21,0-1.53-.27-12.53-.27-14.98V7.32c0-4.04,3.27-7.32,7.32-7.32h17.46c4.04,0,7.32,3.27,7.32,7.32v72.76c5.73-2.32,11.98-3.57,18.53-3.57,11.01,0,21.2,3.94,29.48,10.64,10.96,8.85,18.6,22.49,20.45,38.18,0,.19.01.39.01.59-.28,3.34-.78,6.61-1.48,9.79l-.02.07c-.73,2.26-4.58,2.72-6.1.72-6.32-8.36-15.78-13.65-26.35-13.65-.72,0-1.42.02-2.12.07-11.84.79-22.07,8.26-27.72,19.08-2.97,5.7-4.68,12.31-4.68,19.38v90.35c0,8.97,1.7,17.38,4.68,24.61,5.65,13.75,15.88,23.23,27.72,24.24.7.06,1.4.1,2.12.1,10.57,0,20.03-6.74,26.35-17.34,1.52-2.55,5.37-1.97,6.1.91l.02.09Z"/>
    <path d="M875.76,297.57c0,.26-.01.5-.01.75-1.86,19.98-9.52,37.36-20.5,48.62-8.3,8.53-18.52,13.55-29.56,13.55-27.9,0-50.5-28.84-50.5-68.4,0-1.53-.27-12.56-.27-15.02V7.34c0-4.05,3.29-7.34,7.34-7.34h17.51c4.05,0,7.34,3.29,7.34,7.34v245.07c0,8.99,1.71,17.42,4.69,24.68,5.67,13.79,15.92,23.29,27.8,24.31.7.06,1.41.1,2.12.1,10.6,0,20.08-6.75,26.43-17.39,1.52-2.55,5.38-1.97,6.11.91l.02.08c.7,4.06,1.2,8.23,1.48,12.48Z"/>
    <text class="cls-1" transform="translate(669.84 501.27)"><tspan x="0" y="0">GAME</tspan></text>
  </g>
</svg>